<mxfile host="Electron" agent="Mozilla/5.0 (Windows NT 10.0; Win64; x64) AppleWebKit/537.36 (KHTML, like Gecko) draw.io/24.7.8 Chrome/128.0.6613.36 Electron/32.0.1 Safari/537.36" version="24.7.8" pages="3">
  <diagram name="endpoints" id="4cOC1C_dSd9MGDBKpjQK">
    <mxGraphModel dx="1100" dy="665" grid="1" gridSize="10" guides="1" tooltips="1" connect="1" arrows="1" fold="1" page="1" pageScale="1" pageWidth="850" pageHeight="1100" math="0" shadow="0">
      <root>
        <mxCell id="0" />
        <mxCell id="1" parent="0" />
        <mxCell id="RJX5fTPbS0YDWjX1pgdW-1" value="Users" style="text;html=1;align=center;verticalAlign=middle;resizable=0;points=[];autosize=1;strokeColor=none;fillColor=none;" vertex="1" parent="1">
          <mxGeometry x="40" y="840" width="50" height="30" as="geometry" />
        </mxCell>
        <mxCell id="RJX5fTPbS0YDWjX1pgdW-2" value="&lt;b&gt;&lt;span style=&quot;white-space: pre;&quot;&gt;&#x9;&lt;/span&gt;create new users&lt;/b&gt;&lt;div&gt;&lt;br&gt;&lt;/div&gt;&lt;div&gt;&lt;ul&gt;&lt;li&gt;&lt;b&gt;Route: &lt;/b&gt;api/user&lt;/li&gt;&lt;li&gt;&lt;b style=&quot;background-color: initial;&quot;&gt;Method: &lt;/b&gt;&lt;span style=&quot;background-color: initial;&quot;&gt;POST&lt;/span&gt;&lt;/li&gt;&lt;li&gt;&lt;b style=&quot;background-color: initial;&quot;&gt;Request Headers:&amp;nbsp;&lt;/b&gt;&lt;/li&gt;&lt;/ul&gt;&lt;span style=&quot;background-color: initial;&quot;&gt;&lt;span style=&quot;white-space: pre;&quot;&gt;&#x9;&lt;/span&gt;&lt;span style=&quot;white-space: pre;&quot;&gt;&#x9;&lt;/span&gt;{&lt;/span&gt;&lt;br&gt;&lt;/div&gt;&lt;div&gt;&lt;span style=&quot;white-space: pre;&quot;&gt;&#x9;&lt;span style=&quot;white-space: pre;&quot;&gt;&#x9;&lt;span style=&quot;white-space: pre;&quot;&gt;&#x9;&lt;/span&gt;&lt;/span&gt;&quot;&lt;/span&gt;Content-Type&quot;: &quot;application/json&quot;,&lt;br&gt;&lt;/div&gt;&lt;div&gt;&lt;span style=&quot;white-space: pre;&quot;&gt;&#x9;&lt;/span&gt;&lt;span style=&quot;white-space: pre;&quot;&gt;&#x9;&lt;span style=&quot;white-space: pre;&quot;&gt;&#x9;&lt;/span&gt;&lt;/span&gt;&quot;Authorization&quot;: &quot;Bearer &amp;lt;token&amp;gt;&quot;&lt;br&gt;&lt;/div&gt;&lt;div&gt;&lt;span style=&quot;white-space: pre;&quot;&gt;&#x9;&lt;span style=&quot;white-space: pre;&quot;&gt;&#x9;&lt;/span&gt;&lt;/span&gt;}&lt;/div&gt;&lt;div&gt;&lt;ul&gt;&lt;li&gt;&lt;b style=&quot;background-color: initial;&quot;&gt;Request Body:&amp;nbsp;&lt;/b&gt;&lt;/li&gt;&lt;/ul&gt;&lt;/div&gt;&lt;div&gt;&lt;span style=&quot;white-space: pre;&quot;&gt;&#x9;&lt;span style=&quot;white-space: pre;&quot;&gt;&#x9;&lt;/span&gt;&lt;/span&gt;{&lt;/div&gt;&lt;div&gt;&lt;span style=&quot;white-space: pre;&quot;&gt;&#x9;&lt;/span&gt;&lt;span style=&quot;white-space: pre;&quot;&gt;&#x9;&lt;span style=&quot;white-space: pre;&quot;&gt;&#x9;&lt;/span&gt;&lt;/span&gt;&quot;name&quot;: &quot;&amp;lt;string&amp;gt;&quot;,&lt;/div&gt;&lt;div&gt;&lt;span style=&quot;white-space: pre;&quot;&gt;&#x9;&lt;/span&gt;&lt;span style=&quot;white-space: pre;&quot;&gt;&#x9;&lt;span style=&quot;white-space: pre;&quot;&gt;&#x9;&lt;/span&gt;&lt;/span&gt;&quot;email&quot;: &quot;&amp;lt;string&amp;gt;&quot;,&lt;br&gt;&lt;/div&gt;&lt;div&gt;&lt;span style=&quot;white-space: pre;&quot;&gt;&#x9;&lt;/span&gt;&lt;span style=&quot;white-space: pre;&quot;&gt;&#x9;&lt;span style=&quot;white-space: pre;&quot;&gt;&#x9;&lt;/span&gt;&lt;/span&gt;&quot;password&quot;: &quot;&amp;lt;string&amp;gt;&quot;,&lt;/div&gt;&lt;div&gt;&lt;span style=&quot;white-space: pre;&quot;&gt;&#x9;&lt;/span&gt;&lt;span style=&quot;white-space: pre;&quot;&gt;&#x9;&lt;/span&gt;&lt;span style=&quot;white-space: pre;&quot;&gt;&#x9;&lt;/span&gt;&quot;userType&quot;: &quot;&amp;lt;string&amp;gt;&quot;&lt;br&gt;&lt;/div&gt;&lt;div&gt;&lt;span style=&quot;white-space: pre;&quot;&gt;&#x9;&lt;span style=&quot;white-space: pre;&quot;&gt;&#x9;&lt;/span&gt;&lt;/span&gt;}&lt;/div&gt;&lt;div&gt;&lt;ul&gt;&lt;li&gt;&lt;b&gt;Response&lt;/b&gt;&lt;/li&gt;&lt;ul&gt;&lt;li&gt;&lt;b&gt;201 Ok&lt;/b&gt;&lt;/li&gt;&lt;ul&gt;&lt;li&gt;&lt;b&gt;Body:&lt;/b&gt;&lt;/li&gt;&lt;/ul&gt;&lt;/ul&gt;&lt;/ul&gt;&lt;div&gt;&lt;span style=&quot;font-weight: bold; white-space: pre;&quot;&gt;&#x9;&lt;/span&gt;&lt;span style=&quot;font-weight: bold; white-space: pre;&quot;&gt;&#x9;&lt;/span&gt;&lt;span style=&quot;font-weight: bold; white-space: pre;&quot;&gt;&#x9;&lt;/span&gt;&lt;span style=&quot;font-weight: bold; white-space: pre;&quot;&gt;&#x9;&lt;/span&gt;&lt;span style=&quot;font-weight: bold; white-space: pre;&quot;&gt;&#x9;&lt;/span&gt;{&lt;/div&gt;&lt;div&gt;&lt;span style=&quot;white-space: pre;&quot;&gt;&#x9;&lt;/span&gt;&lt;span style=&quot;white-space: pre;&quot;&gt;&#x9;&lt;/span&gt;&lt;span style=&quot;white-space: pre;&quot;&gt;&#x9;&lt;/span&gt;&lt;span style=&quot;white-space: pre;&quot;&gt;&#x9;&lt;/span&gt;&lt;span style=&quot;white-space: pre;&quot;&gt;&#x9;&lt;/span&gt;&lt;span style=&quot;white-space: pre;&quot;&gt;&#x9;&lt;/span&gt;&quot;name&quot;: &quot;&amp;lt;string&amp;gt;&quot;,&lt;br&gt;&lt;/div&gt;&lt;div&gt;&lt;span style=&quot;white-space: pre;&quot;&gt;&#x9;&lt;/span&gt;&lt;span style=&quot;white-space: pre;&quot;&gt;&#x9;&lt;/span&gt;&lt;span style=&quot;white-space: pre;&quot;&gt;&#x9;&lt;/span&gt;&lt;span style=&quot;white-space: pre;&quot;&gt;&#x9;&lt;/span&gt;&lt;span style=&quot;white-space: pre;&quot;&gt;&#x9;&lt;/span&gt;&lt;span style=&quot;white-space: pre;&quot;&gt;&#x9;&lt;/span&gt;&quot;email&quot;: &quot;&amp;lt;string&amp;gt;&quot;,&lt;br&gt;&lt;/div&gt;&lt;div&gt;&lt;span style=&quot;white-space: pre;&quot;&gt;&#x9;&lt;/span&gt;&lt;span style=&quot;white-space: pre;&quot;&gt;&#x9;&lt;/span&gt;&lt;span style=&quot;white-space: pre;&quot;&gt;&#x9;&lt;/span&gt;&lt;span style=&quot;white-space: pre;&quot;&gt;&#x9;&lt;/span&gt;&lt;span style=&quot;white-space: pre;&quot;&gt;&#x9;&lt;/span&gt;&lt;span style=&quot;white-space: pre;&quot;&gt;&#x9;&lt;/span&gt;&quot;_id&quot;: &quot;&amp;lt;string&amp;gt;&quot;&lt;br&gt;&lt;/div&gt;&lt;div&gt;&lt;span style=&quot;white-space: pre;&quot;&gt;&#x9;&lt;/span&gt;&lt;span style=&quot;white-space: pre;&quot;&gt;&#x9;&lt;/span&gt;&lt;span style=&quot;white-space: pre;&quot;&gt;&#x9;&lt;/span&gt;&lt;span style=&quot;white-space: pre;&quot;&gt;&#x9;&lt;/span&gt;&lt;span style=&quot;white-space: pre;&quot;&gt;&#x9;&lt;/span&gt;}&lt;br&gt;&lt;/div&gt;&lt;/div&gt;&lt;div&gt;&lt;ul&gt;&lt;ul&gt;&lt;li&gt;&lt;b&gt;400 Bad Request&lt;/b&gt;&lt;/li&gt;&lt;ul&gt;&lt;li&gt;&lt;b&gt;Body:&lt;/b&gt;&lt;/li&gt;&lt;/ul&gt;&lt;/ul&gt;&lt;/ul&gt;&lt;div&gt;&lt;b&gt;&lt;span style=&quot;white-space: pre;&quot;&gt;&#x9;&lt;/span&gt;&lt;span style=&quot;white-space: pre;&quot;&gt;&#x9;&lt;/span&gt;&lt;span style=&quot;white-space: pre;&quot;&gt;&#x9;&lt;/span&gt;&lt;span style=&quot;white-space: pre;&quot;&gt;&#x9;&lt;/span&gt;&lt;span style=&quot;white-space: pre;&quot;&gt;&#x9;&lt;/span&gt;{&quot;error&quot;: &quot;&lt;/b&gt;missing required keys: &amp;lt;missing keys&amp;gt;&lt;b&gt;&quot;}&lt;br&gt;&lt;/b&gt;&lt;/div&gt;&lt;ul&gt;&lt;ul&gt;&lt;li&gt;&lt;b&gt;409 Conflict&lt;/b&gt;&lt;/li&gt;&lt;ul&gt;&lt;li&gt;&lt;b&gt;Body:&lt;/b&gt;&lt;/li&gt;&lt;/ul&gt;&lt;/ul&gt;&lt;/ul&gt;&lt;div&gt;&lt;span style=&quot;font-weight: bold; white-space: pre;&quot;&gt;&#x9;&lt;/span&gt;&lt;span style=&quot;font-weight: bold; white-space: pre;&quot;&gt;&#x9;&lt;/span&gt;&lt;span style=&quot;font-weight: bold; white-space: pre;&quot;&gt;&#x9;&lt;/span&gt;&lt;span style=&quot;font-weight: bold; white-space: pre;&quot;&gt;&#x9;&lt;/span&gt;&lt;span style=&quot;font-weight: bold; white-space: pre;&quot;&gt;&#x9;&lt;/span&gt;{&quot;error&quot;: &quot;email already exist&quot;}&lt;br&gt;&lt;/div&gt;&lt;/div&gt;&lt;div&gt;&lt;ul&gt;&lt;ul&gt;&lt;li&gt;&amp;nbsp;&lt;b&gt;500 Internal Server Error&lt;/b&gt;&lt;/li&gt;&lt;ul&gt;&lt;li&gt;&lt;b&gt;Body:&lt;/b&gt;&lt;/li&gt;&lt;/ul&gt;&lt;/ul&gt;&lt;/ul&gt;&lt;div&gt;&lt;span style=&quot;font-weight: bold; white-space: pre;&quot;&gt;&#x9;&lt;/span&gt;&lt;span style=&quot;font-weight: bold; white-space: pre;&quot;&gt;&#x9;&lt;/span&gt;&lt;span style=&quot;font-weight: bold; white-space: pre;&quot;&gt;&#x9;&lt;/span&gt;&lt;span style=&quot;font-weight: bold; white-space: pre;&quot;&gt;&#x9;&lt;/span&gt;&lt;span style=&quot;font-weight: bold; white-space: pre;&quot;&gt;&#x9;&lt;/span&gt;{&quot;error&quot;: &quot;internal server error&quot;}&lt;/div&gt;&lt;/div&gt;" style="rounded=0;whiteSpace=wrap;html=1;align=left;" vertex="1" parent="1">
          <mxGeometry x="40" y="880" width="440" height="679" as="geometry" />
        </mxCell>
        <mxCell id="RJX5fTPbS0YDWjX1pgdW-3" value="Authentication" style="text;html=1;align=center;verticalAlign=middle;resizable=0;points=[];autosize=1;strokeColor=none;fillColor=none;" vertex="1" parent="1">
          <mxGeometry x="40" y="40" width="100" height="30" as="geometry" />
        </mxCell>
        <mxCell id="RJX5fTPbS0YDWjX1pgdW-4" value="&lt;b&gt;&lt;span style=&quot;white-space: pre;&quot;&gt;&#x9;&lt;/span&gt;authentication&lt;/b&gt;&lt;div&gt;&lt;br&gt;&lt;/div&gt;&lt;div&gt;&lt;ul&gt;&lt;li&gt;&lt;b&gt;Route: &lt;/b&gt;api/auth&lt;/li&gt;&lt;li&gt;&lt;b style=&quot;background-color: initial;&quot;&gt;Method: &lt;/b&gt;&lt;span style=&quot;background-color: initial;&quot;&gt;POST&lt;/span&gt;&lt;/li&gt;&lt;li&gt;&lt;b style=&quot;background-color: initial;&quot;&gt;Request Headers:&amp;nbsp;&lt;/b&gt;&lt;/li&gt;&lt;/ul&gt;&lt;span style=&quot;background-color: initial;&quot;&gt;&lt;span style=&quot;white-space: pre;&quot;&gt;&#x9;&lt;/span&gt;&lt;span style=&quot;white-space: pre;&quot;&gt;&#x9;&lt;/span&gt;{&lt;/span&gt;&lt;br&gt;&lt;/div&gt;&lt;div&gt;&lt;span style=&quot;white-space: pre;&quot;&gt;&#x9;&lt;span style=&quot;white-space: pre;&quot;&gt;&#x9;&lt;span style=&quot;white-space: pre;&quot;&gt;&#x9;&lt;/span&gt;&lt;/span&gt;&quot;&lt;/span&gt;Content-Type&quot;: &quot;application/json&quot;&lt;/div&gt;&lt;div&gt;&lt;span style=&quot;white-space: pre;&quot;&gt;&#x9;&lt;span style=&quot;white-space: pre;&quot;&gt;&#x9;&lt;/span&gt;&lt;/span&gt;}&lt;/div&gt;&lt;div&gt;&lt;ul&gt;&lt;li&gt;&lt;b style=&quot;background-color: initial;&quot;&gt;Request Body:&amp;nbsp;&lt;/b&gt;&lt;/li&gt;&lt;/ul&gt;&lt;/div&gt;&lt;div&gt;&lt;span style=&quot;white-space: pre;&quot;&gt;&#x9;&lt;span style=&quot;white-space: pre;&quot;&gt;&#x9;&lt;/span&gt;&lt;/span&gt;{&lt;/div&gt;&lt;div&gt;&lt;span style=&quot;white-space: pre;&quot;&gt;&#x9;&lt;/span&gt;&lt;span style=&quot;white-space: pre;&quot;&gt;&#x9;&lt;span style=&quot;white-space: pre;&quot;&gt;&#x9;&lt;/span&gt;&lt;/span&gt;&quot;email&quot;: &quot;&amp;lt;string&amp;gt;&quot;,&lt;br&gt;&lt;/div&gt;&lt;div&gt;&lt;span style=&quot;white-space: pre;&quot;&gt;&#x9;&lt;/span&gt;&lt;span style=&quot;white-space: pre;&quot;&gt;&#x9;&lt;span style=&quot;white-space: pre;&quot;&gt;&#x9;&lt;/span&gt;&lt;/span&gt;&quot;password&quot;: &quot;&amp;lt;string&amp;gt;&quot;&lt;/div&gt;&lt;div&gt;&lt;span style=&quot;white-space: pre;&quot;&gt;&#x9;&lt;span style=&quot;white-space: pre;&quot;&gt;&#x9;&lt;/span&gt;&lt;/span&gt;}&lt;/div&gt;&lt;div&gt;&lt;ul&gt;&lt;li&gt;&lt;b&gt;Response&lt;/b&gt;&lt;/li&gt;&lt;ul&gt;&lt;li&gt;&lt;b&gt;200 Ok&lt;/b&gt;&lt;/li&gt;&lt;ul&gt;&lt;li&gt;&lt;b&gt;Body:&lt;/b&gt;&lt;/li&gt;&lt;/ul&gt;&lt;/ul&gt;&lt;/ul&gt;&lt;div&gt;&lt;span style=&quot;font-weight: bold; white-space: pre;&quot;&gt;&#x9;&lt;/span&gt;&lt;span style=&quot;font-weight: bold; white-space: pre;&quot;&gt;&#x9;&lt;/span&gt;&lt;span style=&quot;font-weight: bold; white-space: pre;&quot;&gt;&#x9;&lt;/span&gt;&lt;span style=&quot;font-weight: bold; white-space: pre;&quot;&gt;&#x9;&lt;/span&gt;&lt;span style=&quot;font-weight: bold; white-space: pre;&quot;&gt;&#x9;&lt;/span&gt;{&lt;/div&gt;&lt;div&gt;&lt;span style=&quot;white-space: pre;&quot;&gt;&#x9;&lt;/span&gt;&lt;span style=&quot;white-space: pre;&quot;&gt;&#x9;&lt;/span&gt;&lt;span style=&quot;white-space: pre;&quot;&gt;&#x9;&lt;/span&gt;&lt;span style=&quot;white-space: pre;&quot;&gt;&#x9;&lt;/span&gt;&lt;span style=&quot;white-space: pre;&quot;&gt;&#x9;&lt;/span&gt;&lt;span style=&quot;white-space: pre;&quot;&gt;&#x9;&lt;/span&gt;&quot;token&quot;: &quot;&amp;lt;jwt string&amp;gt;&quot;&lt;br&gt;&lt;/div&gt;&lt;div&gt;&lt;span style=&quot;white-space: pre;&quot;&gt;&#x9;&lt;/span&gt;&lt;span style=&quot;white-space: pre;&quot;&gt;&#x9;&lt;/span&gt;&lt;span style=&quot;white-space: pre;&quot;&gt;&#x9;&lt;/span&gt;&lt;span style=&quot;white-space: pre;&quot;&gt;&#x9;&lt;/span&gt;&lt;span style=&quot;white-space: pre;&quot;&gt;&#x9;&lt;/span&gt;&lt;span style=&quot;white-space: pre;&quot;&gt;&#x9;&lt;/span&gt;&quot;name&quot;: &quot;&amp;lt;string&amp;gt;&quot;,&lt;br&gt;&lt;/div&gt;&lt;div&gt;&lt;span style=&quot;white-space: pre;&quot;&gt;&#x9;&lt;/span&gt;&lt;span style=&quot;white-space: pre;&quot;&gt;&#x9;&lt;/span&gt;&lt;span style=&quot;white-space: pre;&quot;&gt;&#x9;&lt;/span&gt;&lt;span style=&quot;white-space: pre;&quot;&gt;&#x9;&lt;/span&gt;&lt;span style=&quot;white-space: pre;&quot;&gt;&#x9;&lt;/span&gt;&lt;span style=&quot;white-space: pre;&quot;&gt;&#x9;&lt;/span&gt;&quot;email&quot;: &quot;&amp;lt;string&amp;gt;&quot;,&lt;br&gt;&lt;/div&gt;&lt;div&gt;&lt;span style=&quot;white-space: pre;&quot;&gt;&#x9;&lt;/span&gt;&lt;span style=&quot;white-space: pre;&quot;&gt;&#x9;&lt;/span&gt;&lt;span style=&quot;white-space: pre;&quot;&gt;&#x9;&lt;/span&gt;&lt;span style=&quot;white-space: pre;&quot;&gt;&#x9;&lt;/span&gt;&lt;span style=&quot;white-space: pre;&quot;&gt;&#x9;&lt;/span&gt;&lt;span style=&quot;white-space: pre;&quot;&gt;&#x9;&lt;/span&gt;&quot;_id&quot;: &quot;&amp;lt;string&amp;gt;&quot;,&lt;br&gt;&lt;/div&gt;&lt;div&gt;&lt;span style=&quot;white-space: pre;&quot;&gt;&#x9;&lt;/span&gt;&lt;span style=&quot;white-space: pre;&quot;&gt;&#x9;&lt;/span&gt;&lt;span style=&quot;white-space: pre;&quot;&gt;&#x9;&lt;/span&gt;&lt;span style=&quot;white-space: pre;&quot;&gt;&#x9;&lt;/span&gt;&lt;span style=&quot;white-space: pre;&quot;&gt;&#x9;&lt;/span&gt;&lt;span style=&quot;white-space: pre;&quot;&gt;&#x9;&lt;/span&gt;&quot;userType&quot;: &quot;&amp;lt;string&amp;gt;&quot;&lt;br&gt;&lt;/div&gt;&lt;div&gt;&lt;span style=&quot;white-space: pre;&quot;&gt;&#x9;&lt;/span&gt;&lt;span style=&quot;white-space: pre;&quot;&gt;&#x9;&lt;/span&gt;&lt;span style=&quot;white-space: pre;&quot;&gt;&#x9;&lt;/span&gt;&lt;span style=&quot;white-space: pre;&quot;&gt;&#x9;&lt;/span&gt;&lt;span style=&quot;white-space: pre;&quot;&gt;&#x9;&lt;/span&gt;}&lt;br&gt;&lt;/div&gt;&lt;/div&gt;&lt;div&gt;&lt;ul&gt;&lt;ul&gt;&lt;li&gt;&lt;b&gt;400 Bad Request&lt;/b&gt;&lt;/li&gt;&lt;ul&gt;&lt;li&gt;&lt;b&gt;Body:&lt;/b&gt;&lt;/li&gt;&lt;/ul&gt;&lt;/ul&gt;&lt;/ul&gt;&lt;div&gt;&lt;b&gt;&lt;span style=&quot;white-space: pre;&quot;&gt;&#x9;&lt;/span&gt;&lt;span style=&quot;white-space: pre;&quot;&gt;&#x9;&lt;/span&gt;&lt;span style=&quot;white-space: pre;&quot;&gt;&#x9;&lt;/span&gt;&lt;span style=&quot;white-space: pre;&quot;&gt;&#x9;&lt;/span&gt;&lt;span style=&quot;white-space: pre;&quot;&gt;&#x9;&lt;/span&gt;{&quot;error&quot;: &quot;&lt;/b&gt;missing required keys: &amp;lt;missing keys&amp;gt;&lt;b&gt;&quot;}&lt;br&gt;&lt;/b&gt;&lt;/div&gt;&lt;ul&gt;&lt;ul&gt;&lt;li&gt;&lt;b&gt;401 Unauthorized&lt;/b&gt;&lt;/li&gt;&lt;ul&gt;&lt;li&gt;&lt;b&gt;Body:&lt;/b&gt;&lt;/li&gt;&lt;/ul&gt;&lt;/ul&gt;&lt;/ul&gt;&lt;div&gt;&lt;span style=&quot;font-weight: bold; white-space: pre;&quot;&gt;&#x9;&lt;/span&gt;&lt;span style=&quot;font-weight: bold; white-space: pre;&quot;&gt;&#x9;&lt;/span&gt;&lt;span style=&quot;font-weight: bold; white-space: pre;&quot;&gt;&#x9;&lt;/span&gt;&lt;span style=&quot;font-weight: bold; white-space: pre;&quot;&gt;&#x9;&lt;/span&gt;&lt;span style=&quot;font-weight: bold; white-space: pre;&quot;&gt;&#x9;&lt;/span&gt;{&quot;error&quot;: &quot;invalid password&quot;}&lt;br&gt;&lt;/div&gt;&lt;/div&gt;&lt;div&gt;&lt;ul&gt;&lt;ul&gt;&lt;li&gt;&amp;nbsp;&lt;b&gt;500 Internal Server Error&lt;/b&gt;&lt;/li&gt;&lt;ul&gt;&lt;li&gt;&lt;b&gt;Body:&lt;/b&gt;&lt;/li&gt;&lt;/ul&gt;&lt;/ul&gt;&lt;/ul&gt;&lt;div&gt;&lt;span style=&quot;font-weight: bold; white-space: pre;&quot;&gt;&#x9;&lt;/span&gt;&lt;span style=&quot;font-weight: bold; white-space: pre;&quot;&gt;&#x9;&lt;/span&gt;&lt;span style=&quot;font-weight: bold; white-space: pre;&quot;&gt;&#x9;&lt;/span&gt;&lt;span style=&quot;font-weight: bold; white-space: pre;&quot;&gt;&#x9;&lt;/span&gt;&lt;span style=&quot;font-weight: bold; white-space: pre;&quot;&gt;&#x9;&lt;/span&gt;{&quot;error&quot;: &quot;internal server error&quot;}&lt;/div&gt;&lt;/div&gt;" style="rounded=0;whiteSpace=wrap;html=1;align=left;" vertex="1" parent="1">
          <mxGeometry x="40" y="80" width="440" height="679" as="geometry" />
        </mxCell>
        <mxCell id="RJX5fTPbS0YDWjX1pgdW-5" value="&lt;b&gt;&lt;span style=&quot;white-space: pre;&quot;&gt;&#x9;&lt;/span&gt;validate token&lt;/b&gt;&lt;div&gt;&lt;br&gt;&lt;/div&gt;&lt;div&gt;&lt;ul&gt;&lt;li&gt;&lt;b&gt;Route: &lt;/b&gt;api/auth/check&lt;/li&gt;&lt;li&gt;&lt;b style=&quot;background-color: initial;&quot;&gt;Method: &lt;/b&gt;&lt;span style=&quot;background-color: initial;&quot;&gt;POST&lt;/span&gt;&lt;/li&gt;&lt;li&gt;&lt;b style=&quot;background-color: initial;&quot;&gt;Request Headers:&amp;nbsp;&lt;/b&gt;&lt;/li&gt;&lt;/ul&gt;&lt;span style=&quot;background-color: initial;&quot;&gt;&lt;span style=&quot;white-space: pre;&quot;&gt;&#x9;&lt;/span&gt;&lt;span style=&quot;white-space: pre;&quot;&gt;&#x9;&lt;/span&gt;{&lt;/span&gt;&lt;br&gt;&lt;/div&gt;&lt;div&gt;&lt;span style=&quot;white-space: pre;&quot;&gt;&#x9;&lt;span style=&quot;white-space: pre;&quot;&gt;&#x9;&lt;/span&gt;&lt;span style=&quot;white-space: pre;&quot;&gt;&#x9;&lt;/span&gt;&quot;Authorization&quot;: &quot;Bearer &amp;lt;token&amp;gt;&quot;&lt;/span&gt;&lt;/div&gt;&lt;div&gt;&lt;span style=&quot;white-space: pre;&quot;&gt;&#x9;&lt;span style=&quot;white-space: pre;&quot;&gt;&#x9;&lt;/span&gt;&lt;/span&gt;}&lt;/div&gt;&lt;div&gt;&lt;ul&gt;&lt;li&gt;&lt;b&gt;Response&lt;/b&gt;&lt;/li&gt;&lt;ul&gt;&lt;li&gt;&lt;b&gt;200 Ok&lt;/b&gt;&lt;/li&gt;&lt;ul&gt;&lt;li&gt;&lt;b&gt;Body:&lt;/b&gt;&lt;/li&gt;&lt;/ul&gt;&lt;/ul&gt;&lt;/ul&gt;&lt;div&gt;&lt;span style=&quot;font-weight: bold; white-space: pre;&quot;&gt;&#x9;&lt;/span&gt;&lt;span style=&quot;font-weight: bold; white-space: pre;&quot;&gt;&#x9;&lt;/span&gt;&lt;span style=&quot;font-weight: bold; white-space: pre;&quot;&gt;&#x9;&lt;/span&gt;&lt;span style=&quot;font-weight: bold; white-space: pre;&quot;&gt;&#x9;&lt;/span&gt;&lt;span style=&quot;font-weight: bold; white-space: pre;&quot;&gt;&#x9;&lt;/span&gt;{&lt;/div&gt;&lt;div&gt;&lt;span style=&quot;white-space: pre;&quot;&gt;&#x9;&lt;/span&gt;&lt;span style=&quot;white-space: pre;&quot;&gt;&#x9;&lt;/span&gt;&lt;span style=&quot;white-space: pre;&quot;&gt;&#x9;&lt;/span&gt;&lt;span style=&quot;white-space: pre;&quot;&gt;&#x9;&lt;/span&gt;&lt;span style=&quot;white-space: pre;&quot;&gt;&#x9;&lt;/span&gt;&lt;span style=&quot;white-space: pre;&quot;&gt;&#x9;&lt;/span&gt;&quot;name&quot;: &quot;&amp;lt;string&amp;gt;&quot;,&lt;br&gt;&lt;/div&gt;&lt;div&gt;&lt;span style=&quot;white-space: pre;&quot;&gt;&#x9;&lt;/span&gt;&lt;span style=&quot;white-space: pre;&quot;&gt;&#x9;&lt;/span&gt;&lt;span style=&quot;white-space: pre;&quot;&gt;&#x9;&lt;/span&gt;&lt;span style=&quot;white-space: pre;&quot;&gt;&#x9;&lt;/span&gt;&lt;span style=&quot;white-space: pre;&quot;&gt;&#x9;&lt;/span&gt;&lt;span style=&quot;white-space: pre;&quot;&gt;&#x9;&lt;/span&gt;&quot;email&quot;: &quot;&amp;lt;string&amp;gt;&quot;,&lt;br&gt;&lt;/div&gt;&lt;div&gt;&lt;span style=&quot;white-space: pre;&quot;&gt;&#x9;&lt;/span&gt;&lt;span style=&quot;white-space: pre;&quot;&gt;&#x9;&lt;/span&gt;&lt;span style=&quot;white-space: pre;&quot;&gt;&#x9;&lt;/span&gt;&lt;span style=&quot;white-space: pre;&quot;&gt;&#x9;&lt;/span&gt;&lt;span style=&quot;white-space: pre;&quot;&gt;&#x9;&lt;/span&gt;&lt;span style=&quot;white-space: pre;&quot;&gt;&#x9;&lt;/span&gt;&quot;_id&quot;: &quot;&amp;lt;string&amp;gt;&quot;,&lt;br&gt;&lt;/div&gt;&lt;div&gt;&lt;span style=&quot;white-space: pre;&quot;&gt;&#x9;&lt;/span&gt;&lt;span style=&quot;white-space: pre;&quot;&gt;&#x9;&lt;/span&gt;&lt;span style=&quot;white-space: pre;&quot;&gt;&#x9;&lt;/span&gt;&lt;span style=&quot;white-space: pre;&quot;&gt;&#x9;&lt;/span&gt;&lt;span style=&quot;white-space: pre;&quot;&gt;&#x9;&lt;/span&gt;&lt;span style=&quot;white-space: pre;&quot;&gt;&#x9;&lt;/span&gt;&quot;userType&quot;: &quot;&amp;lt;string&amp;gt;&quot;&lt;br&gt;&lt;/div&gt;&lt;div&gt;&lt;span style=&quot;white-space: pre;&quot;&gt;&#x9;&lt;/span&gt;&lt;span style=&quot;white-space: pre;&quot;&gt;&#x9;&lt;/span&gt;&lt;span style=&quot;white-space: pre;&quot;&gt;&#x9;&lt;/span&gt;&lt;span style=&quot;white-space: pre;&quot;&gt;&#x9;&lt;/span&gt;&lt;span style=&quot;white-space: pre;&quot;&gt;&#x9;&lt;/span&gt;}&lt;/div&gt;&lt;/div&gt;&lt;div&gt;&lt;ul&gt;&lt;ul&gt;&lt;li&gt;&lt;b&gt;401 Unauthorized&lt;/b&gt;&lt;/li&gt;&lt;ul&gt;&lt;li&gt;&lt;b&gt;Body:&lt;/b&gt;&lt;/li&gt;&lt;/ul&gt;&lt;/ul&gt;&lt;/ul&gt;&lt;div&gt;&lt;span style=&quot;font-weight: bold; white-space: pre;&quot;&gt;&#x9;&lt;/span&gt;&lt;span style=&quot;font-weight: bold; white-space: pre;&quot;&gt;&#x9;&lt;/span&gt;&lt;span style=&quot;font-weight: bold; white-space: pre;&quot;&gt;&#x9;&lt;/span&gt;&lt;span style=&quot;font-weight: bold; white-space: pre;&quot;&gt;&#x9;&lt;/span&gt;&lt;span style=&quot;font-weight: bold; white-space: pre;&quot;&gt;&#x9;&lt;/span&gt;{&quot;error&quot;: &quot;access token expired or invalid&quot;}&lt;br&gt;&lt;/div&gt;&lt;/div&gt;&lt;div&gt;&lt;ul&gt;&lt;ul&gt;&lt;li&gt;&amp;nbsp;&lt;b&gt;500 Internal Server Error&lt;/b&gt;&lt;/li&gt;&lt;ul&gt;&lt;li&gt;&lt;b&gt;Body:&lt;/b&gt;&lt;/li&gt;&lt;/ul&gt;&lt;/ul&gt;&lt;/ul&gt;&lt;div&gt;&lt;span style=&quot;font-weight: bold; white-space: pre;&quot;&gt;&#x9;&lt;/span&gt;&lt;span style=&quot;font-weight: bold; white-space: pre;&quot;&gt;&#x9;&lt;/span&gt;&lt;span style=&quot;font-weight: bold; white-space: pre;&quot;&gt;&#x9;&lt;/span&gt;&lt;span style=&quot;font-weight: bold; white-space: pre;&quot;&gt;&#x9;&lt;/span&gt;&lt;span style=&quot;font-weight: bold; white-space: pre;&quot;&gt;&#x9;&lt;/span&gt;{&quot;error&quot;: &quot;internal server error&quot;}&lt;/div&gt;&lt;/div&gt;" style="rounded=0;whiteSpace=wrap;html=1;align=left;" vertex="1" parent="1">
          <mxGeometry x="520" y="79" width="440" height="481" as="geometry" />
        </mxCell>
        <mxCell id="RJX5fTPbS0YDWjX1pgdW-6" value="&lt;b&gt;&lt;span style=&quot;white-space: pre;&quot;&gt;&#x9;&lt;/span&gt;update user info&lt;/b&gt;&lt;div&gt;&lt;br&gt;&lt;/div&gt;&lt;div&gt;&lt;ul&gt;&lt;li&gt;&lt;b&gt;Route: &lt;/b&gt;api/user/:id&lt;/li&gt;&lt;li&gt;&lt;b style=&quot;background-color: initial;&quot;&gt;Method: &lt;/b&gt;&lt;span style=&quot;background-color: initial;&quot;&gt;PATCH&lt;/span&gt;&lt;/li&gt;&lt;li&gt;&lt;b style=&quot;background-color: initial;&quot;&gt;Request Headers:&amp;nbsp;&lt;/b&gt;&lt;/li&gt;&lt;/ul&gt;&lt;span style=&quot;background-color: initial;&quot;&gt;&lt;span style=&quot;white-space: pre;&quot;&gt;&#x9;&lt;/span&gt;&lt;span style=&quot;white-space: pre;&quot;&gt;&#x9;&lt;/span&gt;{&lt;/span&gt;&lt;br&gt;&lt;/div&gt;&lt;div&gt;&lt;span style=&quot;white-space: pre;&quot;&gt;&#x9;&lt;span style=&quot;white-space: pre;&quot;&gt;&#x9;&lt;span style=&quot;white-space: pre;&quot;&gt;&#x9;&lt;/span&gt;&lt;/span&gt;&quot;&lt;/span&gt;Content-Type&quot;: &quot;application/json&quot;,&lt;br&gt;&lt;/div&gt;&lt;div&gt;&lt;span style=&quot;white-space: pre;&quot;&gt;&#x9;&lt;/span&gt;&lt;span style=&quot;white-space: pre;&quot;&gt;&#x9;&lt;span style=&quot;white-space: pre;&quot;&gt;&#x9;&lt;/span&gt;&lt;/span&gt;&quot;Authorization&quot;: &quot;Bearer &amp;lt;token&amp;gt;&quot;&lt;br&gt;&lt;/div&gt;&lt;div&gt;&lt;span style=&quot;white-space: pre;&quot;&gt;&#x9;&lt;span style=&quot;white-space: pre;&quot;&gt;&#x9;&lt;/span&gt;&lt;/span&gt;}&lt;/div&gt;&lt;div&gt;&lt;ul&gt;&lt;li&gt;&lt;b style=&quot;background-color: initial;&quot;&gt;Request Body:&amp;nbsp; &lt;/b&gt;&lt;span style=&quot;background-color: initial;&quot;&gt;(any fields in here are optional but will check email)&lt;/span&gt;&lt;/li&gt;&lt;/ul&gt;&lt;/div&gt;&lt;div&gt;&lt;span style=&quot;white-space: pre;&quot;&gt;&#x9;&lt;span style=&quot;white-space: pre;&quot;&gt;&#x9;&lt;/span&gt;&lt;/span&gt;{&lt;/div&gt;&lt;div&gt;&lt;span style=&quot;white-space: pre;&quot;&gt;&#x9;&lt;/span&gt;&lt;span style=&quot;white-space: pre;&quot;&gt;&#x9;&lt;span style=&quot;white-space: pre;&quot;&gt;&#x9;&lt;/span&gt;&lt;/span&gt;&quot;name&quot;: &quot;&amp;lt;string&amp;gt;&quot;,&lt;/div&gt;&lt;div&gt;&lt;span style=&quot;white-space: pre;&quot;&gt;&#x9;&lt;/span&gt;&lt;span style=&quot;white-space: pre;&quot;&gt;&#x9;&lt;span style=&quot;white-space: pre;&quot;&gt;&#x9;&lt;/span&gt;&lt;/span&gt;&quot;email&quot;: &quot;&amp;lt;string&amp;gt;&quot;,&lt;br&gt;&lt;/div&gt;&lt;div&gt;&lt;span style=&quot;white-space: pre;&quot;&gt;&#x9;&lt;/span&gt;&lt;span style=&quot;white-space: pre;&quot;&gt;&#x9;&lt;span style=&quot;white-space: pre;&quot;&gt;&#x9;&lt;/span&gt;&lt;/span&gt;&quot;password&quot;: &quot;&amp;lt;string&amp;gt;&quot;,&lt;/div&gt;&lt;div&gt;&lt;span style=&quot;white-space: pre;&quot;&gt;&#x9;&lt;/span&gt;&lt;span style=&quot;white-space: pre;&quot;&gt;&#x9;&lt;/span&gt;&lt;span style=&quot;white-space: pre;&quot;&gt;&#x9;&lt;/span&gt;&quot;userType&quot;: &quot;&amp;lt;string&amp;gt;&quot;&lt;br&gt;&lt;/div&gt;&lt;div&gt;&lt;span style=&quot;white-space: pre;&quot;&gt;&#x9;&lt;span style=&quot;white-space: pre;&quot;&gt;&#x9;&lt;/span&gt;&lt;/span&gt;}&lt;/div&gt;&lt;div&gt;&lt;ul&gt;&lt;li&gt;&lt;b&gt;Response&lt;/b&gt;&lt;/li&gt;&lt;ul&gt;&lt;li&gt;&lt;b&gt;204 No Content&lt;/b&gt;&lt;/li&gt;&lt;ul&gt;&lt;li&gt;&lt;b&gt;Body:&lt;/b&gt;&lt;/li&gt;&lt;/ul&gt;&lt;/ul&gt;&lt;/ul&gt;&lt;div&gt;&lt;span style=&quot;font-weight: bold; white-space: pre;&quot;&gt;&#x9;&lt;/span&gt;&lt;span style=&quot;font-weight: bold; white-space: pre;&quot;&gt;&#x9;&lt;/span&gt;&lt;span style=&quot;font-weight: bold; white-space: pre;&quot;&gt;&#x9;&lt;/span&gt;&lt;span style=&quot;font-weight: bold; white-space: pre;&quot;&gt;&#x9;&lt;/span&gt;&lt;span style=&quot;font-weight: bold; white-space: pre;&quot;&gt;&#x9;&lt;/span&gt;updated successful, no data returned&lt;/div&gt;&lt;/div&gt;&lt;div&gt;&lt;ul&gt;&lt;ul&gt;&lt;li&gt;&lt;b&gt;409 Conflict&lt;/b&gt;&lt;/li&gt;&lt;ul&gt;&lt;li&gt;&lt;b&gt;Body:&lt;/b&gt;&lt;/li&gt;&lt;/ul&gt;&lt;/ul&gt;&lt;/ul&gt;&lt;div&gt;&lt;span style=&quot;font-weight: bold; white-space: pre;&quot;&gt;&#x9;&lt;/span&gt;&lt;span style=&quot;font-weight: bold; white-space: pre;&quot;&gt;&#x9;&lt;/span&gt;&lt;span style=&quot;font-weight: bold; white-space: pre;&quot;&gt;&#x9;&lt;/span&gt;&lt;span style=&quot;font-weight: bold; white-space: pre;&quot;&gt;&#x9;&lt;/span&gt;&lt;span style=&quot;font-weight: bold; white-space: pre;&quot;&gt;&#x9;&lt;/span&gt;{&quot;error&quot;: &quot;email already exist&quot;}&lt;br&gt;&lt;/div&gt;&lt;/div&gt;&lt;div&gt;&lt;ul&gt;&lt;ul&gt;&lt;li&gt;&amp;nbsp;&lt;b&gt;500 Internal Server Error&lt;/b&gt;&lt;/li&gt;&lt;ul&gt;&lt;li&gt;&lt;b&gt;Body:&lt;/b&gt;&lt;/li&gt;&lt;/ul&gt;&lt;/ul&gt;&lt;/ul&gt;&lt;div&gt;&lt;span style=&quot;font-weight: bold; white-space: pre;&quot;&gt;&#x9;&lt;/span&gt;&lt;span style=&quot;font-weight: bold; white-space: pre;&quot;&gt;&#x9;&lt;/span&gt;&lt;span style=&quot;font-weight: bold; white-space: pre;&quot;&gt;&#x9;&lt;/span&gt;&lt;span style=&quot;font-weight: bold; white-space: pre;&quot;&gt;&#x9;&lt;/span&gt;&lt;span style=&quot;font-weight: bold; white-space: pre;&quot;&gt;&#x9;&lt;/span&gt;{&quot;error&quot;: &quot;internal server error&quot;}&lt;/div&gt;&lt;/div&gt;" style="rounded=0;whiteSpace=wrap;html=1;align=left;" vertex="1" parent="1">
          <mxGeometry x="1040" y="880" width="440" height="560" as="geometry" />
        </mxCell>
        <mxCell id="RJX5fTPbS0YDWjX1pgdW-7" value="&lt;b&gt;&lt;span style=&quot;white-space: pre;&quot;&gt;&#x9;&lt;/span&gt;read user collection&lt;/b&gt;&lt;div&gt;&lt;br&gt;&lt;/div&gt;&lt;div&gt;&lt;ul&gt;&lt;li&gt;&lt;b&gt;Route: &lt;/b&gt;api/user&lt;/li&gt;&lt;li&gt;&lt;b style=&quot;background-color: initial;&quot;&gt;Method: &lt;/b&gt;&lt;span style=&quot;background-color: initial;&quot;&gt;GET&lt;/span&gt;&lt;/li&gt;&lt;li&gt;&lt;b style=&quot;background-color: initial;&quot;&gt;Request Headers:&amp;nbsp;&lt;/b&gt;&lt;/li&gt;&lt;/ul&gt;&lt;span style=&quot;background-color: initial;&quot;&gt;&lt;span style=&quot;white-space: pre;&quot;&gt;&#x9;&lt;/span&gt;&lt;span style=&quot;white-space: pre;&quot;&gt;&#x9;&lt;/span&gt;{&lt;/span&gt;&lt;/div&gt;&lt;div&gt;&lt;span style=&quot;white-space: pre;&quot;&gt;&#x9;&lt;/span&gt;&lt;span style=&quot;white-space: pre;&quot;&gt;&#x9;&lt;span style=&quot;white-space: pre;&quot;&gt;&#x9;&lt;/span&gt;&lt;/span&gt;&quot;Authorization&quot;: &quot;Bearer &amp;lt;token&amp;gt;&quot;&lt;br&gt;&lt;/div&gt;&lt;div&gt;&lt;span style=&quot;white-space: pre;&quot;&gt;&#x9;&lt;span style=&quot;white-space: pre;&quot;&gt;&#x9;&lt;/span&gt;&lt;/span&gt;}&lt;/div&gt;&lt;div&gt;&lt;ul&gt;&lt;li&gt;&lt;b style=&quot;background-color: initial;&quot;&gt;Request Query &lt;/b&gt;&lt;span style=&quot;background-color: initial;&quot;&gt;(request queries are optional and can be combined)&lt;/span&gt;&lt;/li&gt;&lt;ul&gt;&lt;li&gt;&lt;span style=&quot;background-color: initial;&quot;&gt;?id=&amp;lt;24 characters string&amp;gt;&lt;/span&gt;&lt;/li&gt;&lt;ul&gt;&lt;li&gt;searches for the user id&lt;/li&gt;&lt;li&gt;ex: localhost:3000/api/user?id=66d91cbcec2de816f1e292da&lt;/li&gt;&lt;/ul&gt;&lt;li&gt;?keyword=&amp;lt;string&amp;gt;&lt;/li&gt;&lt;ul&gt;&lt;li&gt;searches and performs regex for user&#39;s name or emaile&lt;/li&gt;&lt;li&gt;ex: localhost:3000/api/user?keyword=john&lt;/li&gt;&lt;/ul&gt;&lt;li&gt;?type=&amp;lt;string&amp;gt;&lt;/li&gt;&lt;ul&gt;&lt;li&gt;searches for specific user type&lt;/li&gt;&lt;li&gt;ex: localhost:3000/api/user?type=admin&lt;/li&gt;&lt;/ul&gt;&lt;li&gt;query parameters are optional and can be combined&lt;/li&gt;&lt;ul&gt;&lt;li&gt;ex: localhost:3000/api/user - will return all users&lt;/li&gt;&lt;li&gt;ex: localhost:3000/api/user?keyword=john&amp;amp;access=admin - will search for name or email with the keyword on it and has admin userType&lt;/li&gt;&lt;/ul&gt;&lt;/ul&gt;&lt;/ul&gt;&lt;/div&gt;&lt;div&gt;&lt;ul&gt;&lt;li&gt;&lt;b&gt;Response&lt;/b&gt;&lt;/li&gt;&lt;ul&gt;&lt;li&gt;&lt;b&gt;200 Ok&lt;/b&gt;&lt;/li&gt;&lt;ul&gt;&lt;li&gt;&lt;b&gt;Body:&lt;/b&gt;&lt;/li&gt;&lt;/ul&gt;&lt;/ul&gt;&lt;/ul&gt;&lt;div&gt;&lt;span style=&quot;font-weight: bold; white-space: pre;&quot;&gt;&#x9;&lt;/span&gt;&lt;span style=&quot;font-weight: bold; white-space: pre;&quot;&gt;&#x9;&lt;/span&gt;&lt;span style=&quot;font-weight: bold; white-space: pre;&quot;&gt;&#x9;&lt;/span&gt;&lt;span style=&quot;font-weight: bold; white-space: pre;&quot;&gt;&#x9;&lt;/span&gt;&lt;span style=&quot;font-weight: bold; white-space: pre;&quot;&gt;&#x9;&lt;/span&gt;[&lt;/div&gt;&lt;div&gt;&lt;span style=&quot;white-space: pre;&quot;&gt;&#x9;&lt;/span&gt;&lt;span style=&quot;white-space: pre;&quot;&gt;&#x9;&lt;/span&gt;&lt;span style=&quot;white-space: pre;&quot;&gt;&#x9;&lt;span style=&quot;white-space: pre;&quot;&gt;&#x9;&lt;/span&gt;&lt;span style=&quot;white-space: pre;&quot;&gt;&#x9;&lt;/span&gt;&lt;span style=&quot;white-space: pre;&quot;&gt;&#x9;&lt;/span&gt;{&lt;/span&gt;&lt;/div&gt;&lt;div&gt;&lt;span style=&quot;white-space: pre;&quot;&gt;&#x9;&lt;/span&gt;&lt;span style=&quot;white-space: pre;&quot;&gt;&#x9;&lt;/span&gt;&lt;span style=&quot;white-space: pre;&quot;&gt;&#x9;&lt;/span&gt;&lt;span style=&quot;white-space: pre;&quot;&gt;&#x9;&lt;/span&gt;&lt;span style=&quot;white-space: pre;&quot;&gt;&#x9;&lt;/span&gt;&lt;span style=&quot;white-space: pre;&quot;&gt;&#x9;&lt;/span&gt;&lt;span style=&quot;white-space: pre;&quot;&gt;&#x9;&lt;/span&gt;&quot;_id&quot;: &quot;&amp;lt;string&amp;gt;&quot;,&lt;br&gt;&lt;/div&gt;&lt;div&gt;&lt;span style=&quot;white-space: pre;&quot;&gt;&#x9;&lt;/span&gt;&lt;span style=&quot;white-space: pre;&quot;&gt;&#x9;&lt;/span&gt;&lt;span style=&quot;white-space: pre;&quot;&gt;&#x9;&lt;/span&gt;&lt;span style=&quot;white-space: pre;&quot;&gt;&#x9;&lt;/span&gt;&lt;span style=&quot;white-space: pre;&quot;&gt;&#x9;&lt;/span&gt;&lt;span style=&quot;white-space: pre;&quot;&gt;&#x9;&lt;/span&gt;&lt;span style=&quot;white-space: pre;&quot;&gt;&#x9;&lt;/span&gt;&quot;name&quot;: &quot;&amp;lt;string&amp;gt;&quot;,&lt;br&gt;&lt;/div&gt;&lt;div&gt;&lt;span style=&quot;white-space: pre;&quot;&gt;&#x9;&lt;/span&gt;&lt;span style=&quot;white-space: pre;&quot;&gt;&#x9;&lt;/span&gt;&lt;span style=&quot;white-space: pre;&quot;&gt;&#x9;&lt;/span&gt;&lt;span style=&quot;white-space: pre;&quot;&gt;&#x9;&lt;/span&gt;&lt;span style=&quot;white-space: pre;&quot;&gt;&#x9;&lt;/span&gt;&lt;span style=&quot;white-space: pre;&quot;&gt;&#x9;&lt;/span&gt;&lt;span style=&quot;white-space: pre;&quot;&gt;&#x9;&lt;/span&gt;&quot;email&quot;: &quot;&amp;lt;string&amp;gt;&quot;,&lt;br&gt;&lt;/div&gt;&lt;div&gt;&lt;span style=&quot;white-space: pre;&quot;&gt;&#x9;&lt;/span&gt;&lt;span style=&quot;white-space: pre;&quot;&gt;&#x9;&lt;/span&gt;&lt;span style=&quot;white-space: pre;&quot;&gt;&#x9;&lt;/span&gt;&lt;span style=&quot;white-space: pre;&quot;&gt;&#x9;&lt;/span&gt;&lt;span style=&quot;white-space: pre;&quot;&gt;&#x9;&lt;/span&gt;&lt;span style=&quot;white-space: pre;&quot;&gt;&#x9;&lt;/span&gt;&lt;span style=&quot;white-space: pre;&quot;&gt;&#x9;&lt;/span&gt;&quot;password&quot;: &quot;&amp;lt;string&amp;gt;&quot;,&lt;br&gt;&lt;/div&gt;&lt;div&gt;&lt;span style=&quot;white-space: pre;&quot;&gt;&#x9;&lt;/span&gt;&lt;span style=&quot;white-space: pre;&quot;&gt;&#x9;&lt;/span&gt;&lt;span style=&quot;white-space: pre;&quot;&gt;&#x9;&lt;/span&gt;&lt;span style=&quot;white-space: pre;&quot;&gt;&#x9;&lt;/span&gt;&lt;span style=&quot;white-space: pre;&quot;&gt;&#x9;&lt;/span&gt;&lt;span style=&quot;white-space: pre;&quot;&gt;&#x9;&lt;/span&gt;&lt;span style=&quot;white-space: pre;&quot;&gt;&#x9;&lt;/span&gt;&quot;userType&quot;: &quot;&amp;lt;string&amp;gt;&quot;&lt;br&gt;&lt;/div&gt;&lt;div&gt;&lt;span style=&quot;white-space: pre;&quot;&gt;&#x9;&lt;/span&gt;&lt;span style=&quot;white-space: pre;&quot;&gt;&#x9;&lt;/span&gt;&lt;span style=&quot;white-space: pre;&quot;&gt;&#x9;&lt;/span&gt;&lt;span style=&quot;white-space: pre;&quot;&gt;&#x9;&lt;/span&gt;&lt;span style=&quot;white-space: pre;&quot;&gt;&#x9;&lt;/span&gt;&lt;span style=&quot;white-space: pre;&quot;&gt;&#x9;&lt;/span&gt;},&lt;br&gt;&lt;/div&gt;&lt;div&gt;&lt;span style=&quot;white-space: pre;&quot;&gt;&#x9;&lt;/span&gt;&lt;span style=&quot;white-space: pre;&quot;&gt;&#x9;&lt;/span&gt;&lt;span style=&quot;white-space: pre;&quot;&gt;&#x9;&lt;/span&gt;&lt;span style=&quot;white-space: pre;&quot;&gt;&#x9;&lt;/span&gt;&lt;span style=&quot;white-space: pre;&quot;&gt;&#x9;&lt;/span&gt;&lt;span style=&quot;white-space: pre;&quot;&gt;&#x9;&lt;/span&gt;...&lt;br&gt;&lt;/div&gt;&lt;div&gt;&lt;/div&gt;&lt;div&gt;&lt;/div&gt;&lt;div&gt;&lt;/div&gt;&lt;div&gt;&lt;span style=&quot;white-space: pre;&quot;&gt;&#x9;&lt;/span&gt;&lt;span style=&quot;white-space: pre;&quot;&gt;&#x9;&lt;/span&gt;&lt;span style=&quot;white-space: pre;&quot;&gt;&#x9;&lt;/span&gt;&lt;span style=&quot;white-space: pre;&quot;&gt;&#x9;&lt;/span&gt;&lt;span style=&quot;white-space: pre;&quot;&gt;&#x9;&lt;/span&gt;]&lt;/div&gt;&lt;/div&gt;&lt;div&gt;&lt;ul&gt;&lt;ul&gt;&lt;li&gt;&lt;b&gt;400 Bad request&lt;/b&gt;&lt;/li&gt;&lt;ul&gt;&lt;li&gt;&lt;b&gt;Body:&lt;/b&gt;&lt;/li&gt;&lt;/ul&gt;&lt;/ul&gt;&lt;/ul&gt;&lt;div&gt;&lt;span style=&quot;font-weight: bold; white-space: pre;&quot;&gt;&#x9;&lt;/span&gt;&lt;span style=&quot;font-weight: bold; white-space: pre;&quot;&gt;&#x9;&lt;/span&gt;&lt;span style=&quot;font-weight: bold; white-space: pre;&quot;&gt;&#x9;&lt;/span&gt;&lt;span style=&quot;font-weight: bold; white-space: pre;&quot;&gt;&#x9;&lt;/span&gt;&lt;span style=&quot;font-weight: bold; white-space: pre;&quot;&gt;&#x9;&lt;/span&gt;{&quot;error&quot;: &quot;invalid id format&quot;}&lt;br&gt;&lt;/div&gt;&lt;/div&gt;&lt;div&gt;&lt;ul&gt;&lt;ul&gt;&lt;li&gt;&amp;nbsp;&lt;b&gt;500 Internal Server Error&lt;/b&gt;&lt;/li&gt;&lt;ul&gt;&lt;li&gt;&lt;b&gt;Body:&lt;/b&gt;&lt;/li&gt;&lt;/ul&gt;&lt;/ul&gt;&lt;/ul&gt;&lt;div&gt;&lt;span style=&quot;font-weight: bold; white-space: pre;&quot;&gt;&#x9;&lt;/span&gt;&lt;span style=&quot;font-weight: bold; white-space: pre;&quot;&gt;&#x9;&lt;/span&gt;&lt;span style=&quot;font-weight: bold; white-space: pre;&quot;&gt;&#x9;&lt;/span&gt;&lt;span style=&quot;font-weight: bold; white-space: pre;&quot;&gt;&#x9;&lt;/span&gt;&lt;span style=&quot;font-weight: bold; white-space: pre;&quot;&gt;&#x9;&lt;/span&gt;{&quot;error&quot;: &quot;internal server error&quot;}&lt;/div&gt;&lt;/div&gt;" style="rounded=0;whiteSpace=wrap;html=1;align=left;" vertex="1" parent="1">
          <mxGeometry x="520" y="880" width="480" height="760" as="geometry" />
        </mxCell>
      </root>
    </mxGraphModel>
  </diagram>
  <diagram id="OI9E2z25ABv7KCQG47nm" name="Page-2">
    <mxGraphModel dx="880" dy="532" grid="1" gridSize="10" guides="1" tooltips="1" connect="1" arrows="1" fold="1" page="1" pageScale="1" pageWidth="850" pageHeight="1100" math="0" shadow="0">
      <root>
        <mxCell id="0" />
        <mxCell id="1" parent="0" />
        <mxCell id="2AZRVQsNQK57qaJSgDuW-1" value="Account Category (ASSETS, LIABILITIES, ..)" style="text;html=1;align=center;verticalAlign=middle;resizable=0;points=[];autosize=1;strokeColor=none;fillColor=none;" vertex="1" parent="1">
          <mxGeometry x="40" y="40" width="260" height="30" as="geometry" />
        </mxCell>
        <mxCell id="2AZRVQsNQK57qaJSgDuW-2" value="Account Subcategory (accountanbe forms, investment, ...)" style="text;html=1;align=center;verticalAlign=middle;resizable=0;points=[];autosize=1;strokeColor=none;fillColor=none;" vertex="1" parent="1">
          <mxGeometry x="200" y="80" width="330" height="30" as="geometry" />
        </mxCell>
        <mxCell id="2AZRVQsNQK57qaJSgDuW-3" style="edgeStyle=orthogonalEdgeStyle;rounded=0;orthogonalLoop=1;jettySize=auto;html=1;entryX=0;entryY=0.433;entryDx=0;entryDy=0;entryPerimeter=0;" edge="1" parent="1" source="2AZRVQsNQK57qaJSgDuW-1" target="2AZRVQsNQK57qaJSgDuW-2">
          <mxGeometry relative="1" as="geometry" />
        </mxCell>
      </root>
    </mxGraphModel>
  </diagram>
  <diagram id="DQTL_jXm1_7I6UXjfnQO" name="subreport">
    <mxGraphModel dx="880" dy="532" grid="1" gridSize="10" guides="1" tooltips="1" connect="1" arrows="1" fold="1" page="1" pageScale="1" pageWidth="850" pageHeight="1100" math="0" shadow="0">
      <root>
        <mxCell id="0" />
        <mxCell id="1" parent="0" />
      </root>
    </mxGraphModel>
  </diagram>
</mxfile>
